Units are S.I. units (second, meters, Newtons, ...)
Angles are in degrees.
name walk
datarows 36
datacolumns 18
range 3.780000 3.970000
endheader
time root_joint_q1 root_joint_q2 root_joint_q3 root_joint_q4 root_joint_q5 root_joint_q6 root_joint_q7 exo_ha_l_q exo_hip_l exo_knee_l l_ankle_coupling l_foot exo_ha_r_q exo_hip_r exo_knee_r r_ankle_coupling r_foot
3.780000	1.473946	0.871041	0.004340	0.004097	0.008686	0.002219	0.999951	-0.007192	0.488146	-1.035749	0.564961	0.000000	0.133141	0.003879	-0.782132	0.784238	0.000000
3.785000	1.475279	0.871065	0.006690	0.004583	0.009434	0.001753	0.999942	-0.003306	0.487457	-1.035883	0.567268	0.000000	0.129308	0.005223	-0.786865	0.788917	0.000000
3.790000	1.476612	0.871089	0.009040	0.005069	0.010183	0.001286	0.999934	0.000580	0.486768	-1.036017	0.569576	0.000000	0.125474	0.006567	-0.791598	0.793595	0.000000
3.795000	1.479618	0.871078	0.009690	0.005834	0.011058	0.000535	0.999920	0.006721	0.483333	-1.035687	0.574421	0.000000	0.119219	0.005328	-0.795691	0.800401	0.000000
3.800000	1.482625	0.871068	0.010340	0.006600	0.011933	-0.000216	0.999907	0.012862	0.479899	-1.035358	0.579267	0.000000	0.112963	0.004090	-0.799785	0.807206	0.000000
3.805000	1.487868	0.871442	0.010340	0.007935	0.013087	-0.001329	0.999880	0.022213	0.471854	-1.031370	0.585645	0.000000	0.103183	-0.001206	-0.800438	0.815116	0.000000
3.810000	1.493111	0.871817	0.010340	0.009271	0.014241	-0.002442	0.999853	0.031563	0.463809	-1.027381	0.592023	0.000000	0.093403	-0.006502	-0.801091	0.823026	0.000000
3.815000	1.496275	0.871665	0.014840	0.003825	0.008127	-0.002699	0.999923	0.023508	0.443349	-1.022803	0.595668	0.000000	0.098176	-0.010032	-0.810334	0.826599	0.000000
3.820000	1.499439	0.871514	0.019340	-0.001620	0.002012	-0.002956	0.999992	0.015453	0.422888	-1.018225	0.599312	0.000000	0.102950	-0.013562	-0.819577	0.830171	0.000000
3.825000	1.502753	0.872261	0.019840	-0.002005	0.001447	-0.003570	0.999990	0.018742	0.413210	-1.010966	0.600623	0.000000	0.096910	-0.005888	-0.828298	0.832377	0.000000
3.830000	1.506067	0.873008	0.020340	-0.002389	0.000882	-0.004184	0.999988	0.022031	0.403531	-1.003707	0.601933	0.000000	0.090870	0.001785	-0.837019	0.834582	0.000000
3.835000	1.509354	0.873683	0.019340	-0.002169	0.000815	-0.004717	0.999986	0.025955	0.395180	-0.996708	0.603181	0.000000	0.085939	0.009430	-0.846028	0.836484	0.000000
3.840000	1.512640	0.874358	0.018340	-0.001948	0.000748	-0.005249	0.999984	0.029880	0.386829	-0.989710	0.604429	0.000000	0.081007	0.017076	-0.855038	0.838386	0.000000
3.845000	1.515900	0.874970	0.025340	-0.001812	0.000638	-0.005684	0.999982	0.032999	0.378668	-0.983129	0.605819	0.000000	0.077434	0.023840	-0.864035	0.840448	0.000000
3.850000	1.519160	0.875582	0.032340	-0.001676	0.000529	-0.006118	0.999980	0.036117	0.370508	-0.976547	0.607209	0.000000	0.073862	0.030604	-0.873033	0.842510	0.000000
3.855000	1.522403	0.876147	0.032858	-0.001639	0.000388	-0.006475	0.999977	0.038532	0.362518	-0.970352	0.608750	0.000000	0.071190	0.036899	-0.881854	0.844713	0.000000
3.860000	1.525645	0.876713	0.033377	-0.001603	0.000247	-0.006831	0.999975	0.040948	0.354529	-0.964156	0.610292	0.000000	0.068519	0.043193	-0.890676	0.846916	0.000000
3.865000	1.528900	0.877218	0.029265	-0.001619	0.000101	-0.007125	0.999973	0.042856	0.346716	-0.958375	0.612057	0.000000	0.066559	0.049291	-0.899261	0.849150	0.000000
3.870000	1.532155	0.877723	0.025153	-0.001634	-0.000045	-0.007420	0.999971	0.044765	0.338904	-0.952594	0.613822	0.000000	0.064599	0.055389	-0.907846	0.851383	0.000000
3.875000	1.535479	0.878148	0.031785	-0.001656	-0.000171	-0.007663	0.999969	0.046317	0.331248	-0.947281	0.615936	0.000000	0.063288	0.061382	-0.916115	0.853600	0.000000
3.880000	1.538803	0.878574	0.038416	-0.001678	-0.000297	-0.007906	0.999967	0.047870	0.323592	-0.941968	0.618051	0.000000	0.061978	0.067374	-0.924384	0.855818	0.000000
3.885000	1.542280	0.878924	0.039314	-0.001680	-0.000351	-0.008106	0.999966	0.049157	0.316075	-0.937152	0.620665	0.000000	0.061222	0.073224	-0.932171	0.858113	0.000000
3.890000	1.545758	0.879275	0.040211	-0.001681	-0.000405	-0.008307	0.999964	0.050445	0.308557	-0.932335	0.623279	0.000000	0.060466	0.079074	-0.939959	0.860407	0.000000
3.895000	1.549478	0.879567	0.035861	-0.002008	-0.000590	-0.008445	0.999962	0.050713	0.300646	-0.928163	0.626658	0.000000	0.060366	0.084070	-0.947065	0.863082	0.000000
3.905000	1.557275	0.879686	0.036642	-0.005011	-0.003071	-0.008463	0.999940	0.045602	0.280708	-0.922420	0.635850	0.000000	0.063819	0.088366	-0.960828	0.869216	0.000000
3.910000	1.561350	0.879513	0.041773	-0.007687	-0.005366	-0.008342	0.999921	0.040223	0.268682	-0.920851	0.641664	0.000000	0.067373	0.087665	-0.967485	0.872676	0.000000
3.915000	1.565895	0.875350	0.041042	-0.014357	-0.014600	-0.007732	0.999695	0.025582	0.246389	-0.933530	0.658013	0.000000	0.080646	0.069446	-0.976426	0.874837	0.000000
3.925000	1.577606	0.882279	0.038384	0.002957	0.014299	-0.009000	0.998835	0.068174	0.280347	-0.900645	0.649307	0.000000	0.028839	0.115721	-0.974406	0.888439	0.000000
3.930000	1.584772	0.888371	0.036457	0.026941	0.052432	-0.010879	0.998202	0.125408	0.336599	-0.855083	0.624253	0.000000	-0.036242	0.180215	-0.963444	0.899880	0.000000
3.935000	1.588299	0.894734	0.036740	0.011117	0.026082	-0.005801	0.999096	0.087386	0.276880	-0.861621	0.636581	0.000000	0.026134	0.128688	-0.977992	0.900722	0.000000
3.925000	1.577606	0.882279	0.038384	0.002957	0.014299	-0.009000	0.998835	0.068174	0.280347	-0.900645	0.649307	0.000000	0.028839	0.115721	-0.974406	0.888439	0.000000
3.945000	1.595436	0.888885	0.036686	-0.004241	-0.000714	-0.000543	0.999991	0.050683	0.206280	-0.857434	0.647928	0.000000	0.084005	0.091157	-1.001021	0.901647	0.000000
3.950000	1.599046	0.889671	0.036350	-0.003775	-0.001159	-0.000363	0.999992	0.052003	0.195398	-0.846710	0.646946	0.000000	0.079500	0.105152	-1.009502	0.901730	0.000000
3.955000	1.602582	0.890200	0.036133	-0.003118	-0.001053	-0.000242	0.999995	0.053906	0.186798	-0.838563	0.647365	0.000000	0.075812	0.115430	-1.018070	0.901195	0.000000
3.965000	1.609478	0.891177	0.035817	-0.001826	-0.000584	-0.000039	0.999998	0.057832	0.170887	-0.823493	0.648653	0.000000	0.069750	0.133804	-1.034566	0.900536	0.000000
3.970000	1.612838	0.891624	0.035718	-0.001190	-0.000222	0.000043	0.999999	0.059853	0.163576	-0.816570	0.649523	0.000000	0.067376	0.141901	-1.042492	0.900413	0.000000
